<svg width="752pt" height="752pt" viewBox="0 0 752 752" xmlns="http://www.w3.org/2000/svg"><g fill="#fff"><path d="M353.93 522.81a26.088 26.088 0 0 0 18.402-7.644 26.09 26.09 0 0 0 7.644-18.403v-259.29a26.092 26.092 0 0 0-26.046-26.046H208.49a26.088 26.088 0 0 0-26.047 26.046v259.29a26.092 26.092 0 0 0 26.047 26.046zM196.65 237.48c0-6.54 5.3-11.84 11.84-11.84h145.44a11.838 11.838 0 0 1 11.84 11.84v30.78H196.65zm0 44.988h169.12v170.49H196.65zm0 214.3v-29.602h169.12v29.602a11.842 11.842 0 0 1-11.84 11.84H208.49c-6.539 0-11.84-5.3-11.84-11.84z"/><path d="M288.34 246.95a7.103 7.103 0 1 1-14.207 0c0-3.922 3.183-7.102 7.105-7.102s7.102 3.18 7.102 7.102M263 493.64h36.418a7.106 7.106 0 0 0 0-14.211H263c-3.922 0-7.102 3.184-7.102 7.106s3.18 7.105 7.102 7.105zM267.08 548.86a7.102 7.102 0 0 0 7.102 7.102h268.71a26.088 26.088 0 0 0 26.046-26.047v-145.44a26.1 26.1 0 0 0-7.64-18.402 26.108 26.108 0 0 0-18.406-7.644h-126.68c-3.922 0-7.102 3.183-7.102 7.105s3.18 7.106 7.102 7.106h81.695v169.11h-223.77a7.105 7.105 0 0 0-7.055 7.105zm245.03-176.22h30.781a11.838 11.838 0 0 1 11.84 11.836v145.44c0 3.14-1.246 6.152-3.469 8.371a11.825 11.825 0 0 1-8.371 3.469H512.11z"/><path d="M540.52 457.17a7.104 7.104 0 1 1-14.207.004 7.104 7.104 0 0 1 14.207-.004M427.77 197.51a7.108 7.108 0 0 0-10.043 0l-15.961 16.008h.004a7.104 7.104 0 0 0 0 10.039l16.008 16.008h-.004a7.102 7.102 0 0 0 9.867-.176 7.101 7.101 0 0 0 .176-9.863l-3.504-3.504a76.378 76.378 0 0 1 48.371 23.434 76.415 76.415 0 0 1 20.961 49.496l-3.98-3.742a7.101 7.101 0 0 0-9.864.176 7.102 7.102 0 0 0-.176 9.867l16.008 16.008v-.004a7.096 7.096 0 0 0 10.04 0l16.007-15.961v.004a7.106 7.106 0 0 0-.175-9.867 7.101 7.101 0 0 0-9.864-.172l-3.976 3.976h-.004c-.703-22.398-9.688-43.738-25.215-59.895s-36.492-25.98-58.844-27.578l4.168-4.168v.004a7.115 7.115 0 0 0 0-10.09z"/></g></svg>