<svg width="752pt" height="752pt" viewBox="0 0 752 752" xmlns="http://www.w3.org/2000/svg"><g fill="#fff"><path d="m180.41 341.9-28.414-95.191c-2.367-8.523 2.367-17.523 10.891-19.891 8.523-2.367 17.523 2.367 19.891 10.891l16.574 55.41c30.781-66.77 98.504-112.71 176.64-112.71 83.824 0 155.34 53.043 183.28 126.92 3.79 10.418-3.79 21.785-14.68 21.785-6.629 0-12.785-4.262-15.156-10.418-23.207-62.039-83.352-106.56-153.44-106.56-67.25 0-125.5 40.727-150.6 99.453l60.617-18.469c8.523-2.367 17.523 2.367 19.891 10.891 2.367 8.523-2.367 17.523-10.891 19.891l-95.191 28.414c-8.05 2.371-17.047-2.367-19.414-10.418zM569.7 514.76l-16.574-55.41c-31.258 66.301-98.977 112.24-177.12 112.24-83.824 0-155.34-53.043-183.28-126.92-3.79-10.418 3.79-21.785 14.68-21.785 6.629 0 12.785 4.262 15.156 10.418 23.207 62.039 83.352 106.55 153.44 106.55 67.25 0 125.5-40.727 150.6-99.453l-60.617 18.473c-8.523 2.367-17.523-2.367-19.891-10.891-2.367-8.523 2.367-17.523 10.891-19.891l95.191-28.414c8.523-2.367 17.523 2.367 19.891 10.891l28.414 95.191c2.367 8.523-2.367 17.523-10.891 19.891-8.523 2.363-17.523-2.371-19.891-10.895z"/></g></svg>