<svg width="752pt" height="752pt" viewBox="0 0 752 752" xmlns="http://www.w3.org/2000/svg"><defs><clipPath id="a"><path d="M139.21 152H491v352H139.21z"/></clipPath><clipPath id="b"><path d="M529 363h83.793v84H529z"/></clipPath></defs><g clip-path="url(#a)"><path d="m337.3 503.62 153.2-153.2c.46-48.617-19.406-99.562-58.926-139.09-72.535-72.535-183.57-79.098-248.02-14.66-64.445 64.445-57.879 175.48 14.652 248.02 39.523 39.523 90.473 59.391 139.09 58.926z" fill="#fff"/></g><path d="M354.27 502.69s46.488-32.262 87.324-5.785 97.383 102.77 97.383 102.77 10.77-2.695 27.82-19.746c17.055-17.055 19.746-27.82 19.746-27.82s-76.289-56.543-102.77-97.383c-26.477-40.836 5.785-87.324 5.785-87.324.008-.067.008-.133.016-.203l-135.51 135.51c.07-.008.137-.012.203-.016z" fill="#fff"/><g clip-path="url(#b)"><path d="M612.79 405c0 23.125-18.75 41.875-41.879 41.875-23.125 0-41.875-18.75-41.875-41.875 0-23.129 18.75-41.879 41.875-41.879 23.129 0 41.879 18.75 41.879 41.879" fill="#fff"/></g></svg>