<svg width="752pt" height="752pt" viewBox="0 0 752 752" xmlns="http://www.w3.org/2000/svg"><g fill="#fff" fill-rule="evenodd"><path d="M287.21 464.8H168.82c-5.445 0-9.867 4.422-9.867 9.867 0 5.446 4.422 9.867 9.867 9.867h118.39v14.797A24.663 24.663 0 0 0 311.878 524h19.73a24.68 24.68 0 0 0 17.445-7.223 24.68 24.68 0 0 0 7.222-17.445v-14.797h226.92c5.446 0 9.868-4.421 9.868-9.867 0-5.445-4.422-9.867-9.868-9.867h-226.92v-14.801a24.663 24.663 0 0 0-24.668-24.664h-19.73A24.663 24.663 0 0 0 287.21 450zM405.6 366.14H168.81c-5.445 0-9.867 4.422-9.867 9.867 0 5.446 4.422 9.867 9.867 9.867H405.6v14.801a24.663 24.663 0 0 0 24.668 24.664h19.73a24.663 24.663 0 0 0 24.667-24.664v-14.8h108.53c5.446 0 9.868-4.422 9.868-9.868 0-5.445-4.422-9.867-9.868-9.867h-108.53v-14.797a24.663 24.663 0 0 0-24.667-24.668h-19.73a24.68 24.68 0 0 0-17.445 7.223 24.68 24.68 0 0 0-7.223 17.445zM247.74 267.48h-78.93c-5.445 0-9.867 4.418-9.867 9.863 0 5.45 4.422 9.867 9.867 9.867h78.93v14.802a24.663 24.663 0 0 0 24.668 24.664h19.73a24.663 24.663 0 0 0 24.667-24.664V287.21h266.39c5.446 0 9.868-4.418 9.868-9.868 0-5.445-4.422-9.863-9.868-9.863h-266.39v-14.801a24.68 24.68 0 0 0-7.222-17.445 24.675 24.675 0 0 0-17.445-7.219h-19.73a24.675 24.675 0 0 0-17.445 7.219 24.663 24.663 0 0 0-7.223 17.445z"/></g></svg>